HIERARCHY
ROOT Hips
{
	OFFSET -0.001795 -0.223333 0.028219
	CHANNELS 6 Xposition Yposition Zposition Zrotation Yrotation Xrotation 
	JOINT LeftUpLeg
	{
		OFFSET 0.069520 -0.091406 -0.006815
		CHANNELS 3 Zrotation Yrotation Xrotation
		JOINT LeftLeg
		{
			OFFSET 0.034277 -0.375199 -0.004496
			CHANNELS 3 Zrotation Yrotation Xrotation
			JOINT LeftFoot
			{
				OFFSET -0.013596 -0.397961 -0.043693
				CHANNELS 3 Zrotation Yrotation Xrotation
				JOINT LeftToe
				{
					OFFSET 0.026358 -0.055791 0.119288
					CHANNELS 3 Zrotation Yrotation Xrotation
					End Site
					{
						OFFSET 0.000000 0.000000 0.000000
					}
				}
			}
		}
	}
	JOINT RightUpLeg
	{
		OFFSET -0.067670 -0.090522 -0.004320
		CHANNELS 3 Zrotation Yrotation Xrotation
		JOINT RightLeg
		{
			OFFSET -0.038290 -0.382569 -0.008850
			CHANNELS 3 Zrotation Yrotation Xrotation
			JOINT RightFoot
			{
				OFFSET 0.015774 -0.398415 -0.042312
				CHANNELS 3 Zrotation Yrotation Xrotation
				JOINT RightToe
				{
					OFFSET -0.025372 -0.048144 0.123348
					CHANNELS 3 Zrotation Yrotation Xrotation
					End Site
					{
						OFFSET 0.000000 0.000000 0.000000
					}
				}
			}
		}
	}
	JOINT Spine
	{
		OFFSET -0.002533 0.108963 -0.026696
		CHANNELS 3 Zrotation Yrotation Xrotation
		JOINT Spine1
		{
			OFFSET 0.005487 0.135180 0.001092
			CHANNELS 3 Zrotation Yrotation Xrotation
			JOINT Spine2
			{
				OFFSET 0.001457 0.052922 0.025425
				CHANNELS 3 Zrotation Yrotation Xrotation
				JOINT Neck
				{
					OFFSET -0.002778 0.213870 -0.042857
					CHANNELS 3 Zrotation Yrotation Xrotation
					JOINT Head
					{
						OFFSET 0.005152 0.064970 0.051349
						CHANNELS 3 Zrotation Yrotation Xrotation
						End Site
						{
							OFFSET 0.000000 0.000000 0.000000
						}
					}
				}
				JOINT LeftShoulder
				{
					OFFSET 0.078845 0.121749 -0.034090
					CHANNELS 3 Zrotation Yrotation Xrotation
					JOINT LeftArm
					{
						OFFSET 0.090977 0.030469 -0.008868
						CHANNELS 3 Zrotation Yrotation Xrotation
						JOINT LeftForeArm
						{
							OFFSET 0.259612 -0.012772 -0.027456
							CHANNELS 3 Zrotation Yrotation Xrotation
							JOINT LeftHand
							{
								OFFSET 0.249234 0.008986 -0.001171
								CHANNELS 3 Zrotation Yrotation Xrotation
								End Site
								{
									OFFSET 0.000000 0.000000 0.000000
								}
							}
						}
					}
				}
				JOINT RightShoulder
				{
					OFFSET -0.081759 0.118833 -0.038615
					CHANNELS 3 Zrotation Yrotation Xrotation
					JOINT RightArm
					{
						OFFSET -0.096012 0.032551 -0.009143
						CHANNELS 3 Zrotation Yrotation Xrotation
						JOINT RightForeArm
						{
							OFFSET -0.253742 -0.013329 -0.021401
							CHANNELS 3 Zrotation Yrotation Xrotation
							JOINT RightHand
							{
								OFFSET -0.255298 0.007772 -0.005559
								CHANNELS 3 Zrotation Yrotation Xrotation
								End Site
								{
									OFFSET 0.000000 0.000000 0.000000
								}
							}
						}
					}
				}
			}
		}
	}
}
MOTION
Frames: 6
Frame Time: 0.050000
0.000000 0.922115 0.000000 2.747868 -0.732804 2.745169 5.129882 -0.650001 -12.190096 -4.068466 0.493901 12.189255 1.907290 6.116560 6.311639 0.000000 0.000000 0.000000 0.979542 0.468308 -4.626550 1.608059 0.144445 11.524221 -5.214775 -12.117018 -4.008497 0.000000 0.000000 0.000000 5.215231 -0.943249 9.982465 -2.675300 1.280773 1.906853 -1.650328 4.995710 5.019437 4.429500 -0.818305 -17.736361 0.000000 0.000000 0.000000 -24.862170 -14.937825 4.859285 -42.429700 -15.996839 0.875793 1.970253 -42.479524 0.437294 0.000000 0.000000 0.000000 20.961514 11.379899 6.035107 45.916877 17.578129 1.559851 -3.629569 35.986740 0.575930 0.000000 0.000000 0.000000 
-0.004079 0.919511 0.001329 2.281807 0.297246 2.683139 5.527061 -0.769800 -15.335661 -3.387153 0.288973 17.907144 1.704587 5.631328 5.711910 0.000000 0.000000 0.000000 2.346296 0.329806 -3.317747 0.866237 0.216875 9.652268 -5.559778 -13.011201 -4.783294 0.000000 0.000000 0.000000 6.001258 -0.948171 9.030895 -1.586511 0.731344 2.006048 -2.655402 5.869669 5.046620 4.693196 -0.802384 -17.708348 0.000000 0.000000 0.000000 -24.974509 -14.147032 3.756532 -42.946422 -14.529478 0.579287 -0.924244 -42.827364 1.355556 0.000000 0.000000 0.000000 20.852759 10.053447 5.753044 45.678025 16.855011 1.128248 -3.065187 35.830440 0.881668 0.000000 0.000000 0.000000 
-0.007259 0.918591 0.004179 1.853900 -0.547563 1.892066 6.650818 -0.736378 -19.580131 -4.166494 0.609488 27.669452 1.548223 5.800924 7.365258 0.000000 0.000000 0.000000 2.139900 0.350644 -3.491063 2.257061 0.011519 11.778593 -5.321817 -12.192644 -5.003733 0.000000 0.000000 0.000000 6.731262 -1.066481 9.772583 -2.151136 1.025089 0.470505 -1.923966 7.006911 5.970711 4.397156 -0.602763 -17.498641 0.000000 0.000000 0.000000 -24.247083 -12.944482 2.894385 -43.717672 -13.249627 0.088829 -6.595800 -42.990253 3.499635 0.000000 0.000000 0.000000 19.644287 8.919894 5.147680 45.109695 15.892523 0.645343 0.382602 34.934906 1.909967 0.000000 0.000000 0.000000 
-0.009903 0.918003 0.010061 2.189522 -0.606155 0.839721 6.251411 -0.949000 -24.346536 -5.318603 1.196779 35.756065 3.610386 10.579455 12.831974 0.000000 0.000000 0.000000 1.797529 0.175538 -1.939924 2.485442 -0.034716 11.795762 -5.305851 -12.028427 -5.400096 0.000000 0.000000 0.000000 6.129425 -0.997887 9.966717 -1.808411 0.858812 1.327160 -1.467551 7.822790 5.111399 3.214968 0.026186 -16.257509 0.000000 0.000000 0.000000 -25.571816 -11.080439 1.348662 -43.747070 -11.398914 -0.347232 -9.043913 -44.294921 4.448154 0.000000 0.000000 0.000000 19.327985 7.484699 4.453243 45.215930 14.430339 0.157974 2.375159 34.833882 2.543435 0.000000 0.000000 0.000000 
-0.012065 0.918405 0.019196 2.350273 -1.152197 -0.710506 4.956810 -1.315349 -27.706211 -6.444519 1.879340 38.436757 8.755250 18.603956 19.941476 0.000000 0.000000 0.000000 2.128790 -0.190823 1.207456 1.547259 0.127188 10.257344 -5.080061 -11.271711 -5.486343 0.000000 0.000000 0.000000 5.577619 -0.972084 10.743323 -1.654300 0.792298 0.845953 -0.913789 8.983820 5.000498 3.250079 -0.071481 -15.024223 0.000000 0.000000 0.000000 -25.326318 -9.329765 0.014794 -44.282116 -9.284881 -1.025154 -12.991241 -45.115014 5.989669 0.000000 0.000000 0.000000 18.482522 6.463506 3.980069 45.817286 12.485661 -0.543191 3.532089 34.725463 2.941602 0.000000 0.000000 0.000000 
-0.014431 0.917880 0.031382 2.190414 -1.916564 -1.564611 3.987427 -1.615552 -30.296738 -6.949342 2.137898 36.168996 9.850835 19.914350 18.719190 0.000000 0.000000 0.000000 2.693228 -0.441713 3.163851 0.765719 0.274439 9.829108 -4.860799 -10.502242 -5.599378 0.000000 0.000000 0.000000 5.500818 -0.938147 10.747105 -1.715457 0.826049 1.149826 -0.756279 10.401686 5.094206 3.014211 0.014877 -13.819301 0.000000 0.000000 0.000000 -24.612322 -8.965098 -0.460568 -45.412551 -9.277688 -1.019919 -14.237970 -44.464468 6.235788 0.000000 0.000000 0.000000 18.560371 5.386923 3.637753 46.954875 12.069675 -0.741155 4.053371 33.517338 3.048316 0.000000 0.000000 0.000000 
